<?xml version="1.0"?>
<svg xmlns="http://www.w3.org/2000/svg" id="outline" viewBox="0 0 512 512" width="512" height="512"><path d="M464,144H399.38892A64.02232,64.02232,0,0,0,344,112H280V96h16a7.99977,7.99977,0,0,0,8-8V72a24.02687,24.02687,0,0,0-24-24H232a24.02687,24.02687,0,0,0-24,24V88a7.99977,7.99977,0,0,0,8,8h16v16H168a64.02232,64.02232,0,0,0-55.38892,32H48a32,32,0,0,0,0,64H64a7.99977,7.99977,0,0,0,8-8V184h8v40a7.99977,7.99977,0,0,0,8,8h16V384a40.04521,40.04521,0,0,0,40,40H280V408H144a24.02687,24.02687,0,0,1-24-24V184H392V304h16V232h16a7.99977,7.99977,0,0,0,8-8V184h8v16a7.99977,7.99977,0,0,0,8,8h16a32,32,0,0,0,0-64ZM56,176v16H48a16,16,0,0,1,0-32h8ZM224,80V72a8.00917,8.00917,0,0,1,8-8h48a8.00917,8.00917,0,0,1,8,8v8H224Zm40,16v16H248V96ZM104,176v40H96V176a7.99977,7.99977,0,0,0-8-8H72v-8h32Zm16.67944-8A48.06914,48.06914,0,0,1,168,128H344a48.06914,48.06914,0,0,1,47.32056,40ZM440,168H424a7.99977,7.99977,0,0,0-8,8v40h-8V160h32Zm24,24h-8V160h8a16,16,0,0,1,0,32Z"/><path d="M488,360H459.69507A31.794,31.794,0,0,0,464,344V328a7.99977,7.99977,0,0,0-8-8H328a7.99977,7.99977,0,0,0-8,8v16a31.794,31.794,0,0,0,4.30493,16H296a7.99977,7.99977,0,0,0-8,8v16a40.04521,40.04521,0,0,0,40,40H456a40.04521,40.04521,0,0,0,40-40V368A7.99977,7.99977,0,0,0,488,360ZM336,336H448v8a16.01833,16.01833,0,0,1-16,16H352a16.01833,16.01833,0,0,1-16-16Zm144,48a24.0275,24.0275,0,0,1-24,24H328a24.0275,24.0275,0,0,1-24-24v-8H480Z"/></svg>
