<svg xmlns="http://www.w3.org/2000/svg" style="display: none;"><symbol id="dumbbell" viewBox="0 0 512.001 512.001"><title>dumbbell</title><path d="M504.501,368.402c4.142,0,7.5-3.357,7.5-7.5v-14.505c0-14.663-11.196-26.592-24.957-26.592h-12.138v-15.368 c0-10.753-8.749-19.501-19.501-19.501h-60.37c-10.753,0-19.501,8.749-19.501,19.501v40.021c-53.929-6.291-121.058-6.301-175.078,0 v-40.021c0-10.753-8.749-19.501-19.501-19.501h-4.77c41.115-25.037,87.096-58.988,122.947-92.053l23.542,32.364 c6.334,8.71,18.563,10.613,27.242,4.3l48.821-35.51c0,0,0,0,0-0.001c8.695-6.324,10.624-18.545,4.299-27.242l-9.04-12.428 l9.816-7.139c11.129-8.096,13.166-24.328,4.541-36.186l-40.71-55.969c-8.626-11.856-24.695-14.919-35.824-6.824l-9.817,7.141 l-9.039-12.427c-6.324-8.698-18.545-10.625-27.242-4.301L236.9,74.171c-8.695,6.324-10.624,18.545-4.299,27.242l23.541,32.364 c-47.326,26.643-101.607,66.114-141.585,102.985L97.24,212.957c-9.752-13.407-28.62-16.387-42.025-6.633l-31.706,23.061 c-13.414,9.759-16.389,28.611-6.632,42.026l2.814,3.869l-9.815,7.139c-11.351,8.255-12.99,24.57-4.541,36.186l40.71,55.967 c4.454,6.125,10.982,10.02,17.944,11.055v29.978c0,14.663,11.196,26.593,24.957,26.593h12.138v15.367 c0,10.753,8.749,19.501,19.501,19.501h60.37c10.753,0,19.501-8.749,19.501-19.501v-40.017c21.315,2.48,45.276,4.039,69.887,4.534 c0.052,0.002,0.103,0.002,0.154,0.002c4.072,0,7.414-3.26,7.497-7.35c0.083-4.141-3.207-7.566-7.349-7.649 c-24.815-0.5-48.922-2.097-70.189-4.64v-42.889c53.057-6.359,120.92-6.491,175.078,0v42.889 c-21.265,2.543-45.373,4.14-70.189,4.64c-4.141,0.083-7.432,3.508-7.349,7.648c0.083,4.091,3.423,7.351,7.497,7.351 c0.051,0,0.103,0,0.154-0.002c24.612-0.495,48.573-2.054,69.887-4.534v40.017c0,10.753,8.749,19.501,19.501,19.501h60.37 c10.753,0,19.501-8.749,19.501-19.501v-15.367h12.138c13.761,0,24.957-11.93,24.957-26.593v-19.7c0-4.143-3.358-7.5-7.5-7.5 s-7.5,3.357-7.5,7.5v19.7c0,6.283-4.559,11.592-9.956,11.592h-12.138v-92.39h12.138c5.396,0,9.956,5.308,9.956,11.591v14.505 C497,365.045,500.359,368.402,504.501,368.402z M340.642,60.379c4.363-3.172,11.175-1.563,14.869,3.518l40.71,55.969 c3.696,5.08,3.131,12.056-1.233,15.23l-9.816,7.139c-6.077-8.358-48.169-66.225-54.346-74.717L340.642,60.379z M244.732,92.591 c-1.434-1.973-0.98-4.852,0.992-6.287l48.821-35.511c1.981-1.439,4.856-0.974,6.286,0.993 c3.036,4.174,72.998,100.358,76.621,105.34c0.002,0.002,0.003,0.004,0.005,0.006l13.447,18.486 c1.435,1.973,0.981,4.852-0.992,6.287l-48.822,35.511c-1.982,1.44-4.832,1.006-6.285-0.993 C331.846,212.356,248.303,97.5,244.732,92.591z M265.023,145.989l25.229,34.684c-39.021,36.216-93.755,76.252-141.588,102.979 l-25.225-34.679C162.355,212.852,217.122,172.753,265.023,145.989z M63.989,346.397v23.808c-2.231-0.831-4.293-2.369-5.811-4.457 l-40.71-55.968c-3.865-5.312-3.001-12.15,1.233-15.23l9.815-7.139c1.19,1.637,10.507,14.445,36.768,50.55 C64.39,340.802,63.989,343.734,63.989,346.397z M101.084,427.196H88.946c-5.396,0-9.956-5.308-9.956-11.592 c0-6.776,0-62.144,0-69.208c0-2.62,0.865-5.449,2.578-7.671c2.04-2.651,4.799-3.92,7.378-3.92h12.137V427.196z M101.084,304.436 v15.368H88.946c-0.609,0-1.212,0.031-1.811,0.078c-0.106,0.008-0.212,0.016-0.318,0.026c-4.644,0.42-8.928,2.199-12.501,4.964 l-45.307-62.287c-4.892-6.724-3.401-16.177,3.324-21.069l31.706-23.061c6.695-4.873,16.196-3.376,21.069,3.325 c5.461,7.507,40.093,55.12,45.937,63.154h-10.461C109.833,284.934,101.084,293.683,101.084,304.436z M185.456,457.564 c0,2.439-2.061,4.5-4.5,4.5h-60.37c-2.439,0-4.5-2.061-4.5-4.5c0-7.059,0-148.525,0-153.127c0-2.439,2.061-4.5,4.5-4.5 c15.263,0,23.69,0,28.077,0c3.162,0,4.226,0,4.235,0c4.385,0,12.807,0,28.058,0c2.439,0,4.5,2.061,4.5,4.5 C185.456,313.718,185.456,451.857,185.456,457.564z M459.906,457.564c0,2.439-2.061,4.5-4.5,4.5h-60.37 c-2.439,0-4.5-2.061-4.5-4.5V304.437c0-2.439,2.061-4.5,4.5-4.5h60.37c2.439,0,4.5,2.061,4.5,4.5 C459.906,313.675,459.906,452.608,459.906,457.564z"/></symbol><symbol id="washing-machine" viewBox="0 0 480 480"><title>washing-machine</title><path d="M240,416c56.65-0.018,108.026-33.25,131.272-84.912c16.955-37.548,16.955-80.572,0-118.12 c-32.602-72.539-117.837-104.914-190.376-72.312c-72.539,32.602-104.914,117.837-72.312,190.376 C131.834,382.763,183.284,416.028,240,416z M123.241,219.512C143.904,173.553,189.61,143.994,240,144 c50.386,0.036,96.07,29.611,116.728,75.568c15.046,33.355,15.046,71.565,0,104.92c-28.988,64.476-104.756,93.244-169.231,64.255 C123.021,359.755,94.253,283.988,123.241,219.512z"/><path d="M416,0H64C50.745,0,40,10.745,40,24v432c0,13.255,10.745,24,24,24h352c13.255,0,24-10.745,24-24V24 C440,10.745,429.255,0,416,0z M424,456c0,4.418-3.582,8-8,8H64c-4.418,0-8-3.582-8-8v-8h368V456z M424,432H56V112h368V432z M424,96H56V24c0-4.418,3.582-8,8-8h352c4.418,0,8,3.582,8,8V96z"/><path d="M240,384c3.616,0,7.2-0.232,10.752-0.576c10.789-0.996,21.371-3.587,31.4-7.688c0.8-0.32,1.6-0.592,2.4-0.928 s1.76-0.8,2.64-1.256c1.384-0.64,2.784-1.256,4.144-1.952c54.998-28.356,76.596-95.928,48.24-150.927 c-0.153-0.297-0.308-0.594-0.464-0.889c-12.851-24.414-34.271-43.219-60.144-52.8c-0.48-0.176-0.936-0.384-1.416-0.552 c-8.646-3.044-17.633-5.014-26.76-5.864C247.2,160.232,243.616,160,240,160c-61.856,0-112,50.144-112,112S178.144,384,240,384z M328.728,235.552v0.056c0.176,0.432,0.408,0.848,0.584,1.28c0.416,1.064,0.8,2.144,1.144,3.2c0.8,2.296,1.552,4.608,2.184,6.952 c0.331,1.211,0.635,2.427,0.912,3.648c0.544,2.4,0.968,4.8,1.32,7.2c0.168,1.112,0.368,2.216,0.488,3.336 c0.853,7.129,0.853,14.335,0,21.464c-0.12,1.112-0.32,2.208-0.48,3.312c-0.36,2.4-0.8,4.864-1.328,7.256 c-0.28,1.224-0.584,2.4-0.904,3.632c-0.64,2.4-1.376,4.68-2.2,6.984c-0.376,1.064-0.72,2.136-1.136,3.2 c-0.176,0.432-0.408,0.848-0.584,1.28c-20.103-17.24-22.424-47.513-5.184-67.616C325.137,238.878,326.87,237.145,328.728,235.552 z M158.601,221.056C176.157,193.014,206.916,175.989,240,176c33.075-0.041,63.828,16.995,81.336,45.056 c-28.136,21.293-33.683,61.362-12.39,89.498c3.541,4.68,7.711,8.849,12.39,12.39c-28.136,44.938-87.374,58.559-132.312,30.424 C144.086,325.232,130.465,265.994,158.601,221.056z"/><path d="M176,272c0.04-35.33,28.67-63.96,64-64c4.418,0,8-3.582,8-8s-3.582-8-8-8c-44.163,0.048-79.951,35.837-80,80 c0,4.418,3.582,8,8,8S176,276.418,176,272z"/><path d="M336,40h-32c-4.418,0-8,3.582-8,8s3.582,8,8,8h32c4.418,0,8-3.582,8-8S340.418,40,336,40z"/><path d="M336,64h-32c-4.418,0-8,3.582-8,8s3.582,8,8,8h32c4.418,0,8-3.582,8-8S340.418,64,336,64z"/><path d="M184,40h-32c-4.418,0-8,3.582-8,8s3.582,8,8,8h32c4.418,0,8-3.582,8-8S188.418,40,184,40z"/><path d="M184,64h-32c-4.418,0-8,3.582-8,8s3.582,8,8,8h32c4.418,0,8-3.582,8-8S188.418,64,184,64z"/><path d="M400,40h-32c-4.418,0-8,3.582-8,8s3.582,8,8,8h32c4.418,0,8-3.582,8-8S404.418,40,400,40z"/><path d="M400,64h-32c-4.418,0-8,3.582-8,8s3.582,8,8,8h32c4.418,0,8-3.582,8-8S404.418,64,400,64z"/><path d="M256,24c-17.673,0-32,14.327-32,32s14.327,32,32,32c17.673,0,32-14.327,32-32S273.673,24,256,24z M256,72 c-8.837,0-16-7.163-16-16s7.163-16,16-16s16,7.163,16,16S264.837,72,256,72z"/><path d="M104,24c-17.673,0-32,14.327-32,32s14.327,32,32,32s32-14.327,32-32S121.673,24,104,24z M104,72c-8.837,0-16-7.163-16-16 s7.163-16,16-16s16,7.163,16,16S112.837,72,104,72z"/></symbol><symbol id="smoking" viewBox="0 0 512 512"><title>smoking</title><path d="m422 286c0 8.284 6.716 15 15 15s15-6.716 15-15c0-67.5-35.064-93.798-66-117-28.976-21.732-54-40.5-54-93 0-8.284-6.716-15-15-15s-15 6.716-15 15c0 67.5 35.064 93.798 66 117 28.976 21.732 54 40.5 54 93z"/><path d="m452 76c0-8.284-6.716-15-15-15s-15 6.716-15 15c0 64.542 17.276 90.457 32.519 113.32 14.132 21.199 27.481 41.222 27.481 96.68 0 8.284 6.716 15 15 15s15-6.716 15-15c0-64.542-17.276-90.457-32.519-113.32-14.132-21.199-27.481-41.222-27.481-96.68z"/><path d="m497 331h-482c-8.284 0-15 6.716-15 15v90c0 8.284 6.716 15 15 15h482c8.284 0 15-6.716 15-15v-90c0-8.284-6.716-15-15-15zm-75 30v60h-211v-60zm-392 0h151v60h-151zm452 60h-30v-60h30z"/></symbol><symbol id="pet" viewBox="0 0 480.052 480.052"><title>pet</title><g> <g> <path d="M470.955,388.077c-16.888-29.616-47.84-35.16-53.88-35.968c-0.352-0.048-0.704-0.072-1.064-0.072h-84.688l-3.352-3.352 c4.312-1.504,8.44-3.472,12.264-5.856c3.928-2.448,7.264-5.2,10.216-8.056l31.36,8.96l4.392-15.384l-25.088-7.168 c3.312-5.656,5.392-10.976,6.552-14.832c0.224-0.752,0.344-1.528,0.344-2.312v-16.44l19.152-8.208l-6.296-14.704l-12.856,5.512 v-6.16c0-1.448-0.392-2.872-1.144-4.12l-24-40c-1.264-2.112-3.44-3.52-5.88-3.824c-2.408-0.264-4.88,0.536-6.632,2.288 l-21.656,21.656h-4.688V139.349l11.312-11.312h10.264l21.984,14.656c3.68,2.456,8.64,1.456,11.096-2.216l16-24 c1.792-2.688,1.792-6.184,0-8.872l-32-48c-1.488-2.232-3.984-3.568-6.656-3.568h-24c-3.032,0-5.8,1.712-7.16,4.424l-13.784,27.576 h-86.112l-13.792-27.576c-1.352-2.712-4.12-4.424-7.152-4.424h-32c-2.584,0-5.008,1.248-6.504,3.352l-40,56 c-2.272,3.176-1.912,7.536,0.848,10.304l16,16c2.696,2.704,6.92,3.104,10.096,1l21.984-14.656h18.264l3.312,3.312v86.96 c-21.12,7.672-78.784,33.992-103.48,98.888c-14.568,38.288-11.336,74.032-5.968,97.448l-18.552-11.136v-27.472 c0-9.152-5.088-17.376-13.264-21.464c-8.192-4.096-17.824-3.216-25.144,2.272c-6.008,4.512-9.592,11.688-9.592,19.192v56 c0,2.76,1.424,5.32,3.76,6.784l64,40c1.272,0.792,2.736,1.216,4.24,1.216h160h32h168c1.24,0,2.472-0.288,3.576-0.84l32-16 c1.448-0.72,2.632-1.864,3.416-3.272C471.835,458.437,490.971,423.141,470.955,388.077z M256.019,399.989l-47.376-0.152l-0.048,16 l47.416,0.152v48.048h-16c0-17.648-14.352-32-32-32h-16c0-39.696-32.296-72-72-72h-8v16h8c30.872,0,56,25.12,56,56v8 c0,4.416,3.576,8,8,8h24c8.824,0,16,7.176,16,16H74.307l-58.296-36.432v-51.568c0-2.504,1.192-4.896,3.192-6.4 c2.48-1.856,5.608-2.144,8.384-0.752c2.768,1.384,4.424,4.056,4.424,7.152v32c0,2.808,1.48,5.416,3.88,6.856l40,24 c2.904,1.744,6.6,1.472,9.216-0.696c2.608-2.168,3.576-5.736,2.408-8.92c-5.984-16.288-17.968-59.264-0.032-106.4 c1.176-3.096,2.512-6.008,3.848-8.912l0.016,0.008c26.936-58.536,83.888-78.832,95.04-82.304c3.352-1.032,5.624-4.128,5.624-7.632 v-96c0-2.12-0.84-4.16-2.344-5.656l-8-8c-1.496-1.504-3.528-2.344-5.656-2.344h-24c-1.576,0-3.128,0.472-4.44,1.344l-18.544,12.36 l-6.568-6.568l33.672-47.136h22.936l13.792,27.576c1.352,2.712,4.12,4.424,7.152,4.424h96c3.032,0,5.8-1.712,7.16-4.424 l13.784-27.576h14.776l26.664,40l-8.6,12.904l-17.344-11.56c-1.312-0.872-2.864-1.344-4.44-1.344h-16 c-2.128,0-4.16,0.84-5.656,2.344l-16,16c-1.504,1.496-2.344,3.536-2.344,5.656v104h-20.688l-21.656-21.656 c-1.744-1.752-4.2-2.576-6.632-2.288c-2.448,0.304-4.616,1.712-5.88,3.824l-24,40c-0.752,1.248-1.144,2.672-1.144,4.12v6.16 l-12.848-5.504l-6.296,14.704l19.144,8.2v12.616v3.824c0,0.784,0.12,1.56,0.344,2.312c1.472,4.896,4.376,12.112,9.536,19.44 l-28.688,10.76l5.624,14.984l34.832-13.064c1.888,1.52,3.928,2.984,6.136,4.36c6.136,3.824,13.016,6.56,20.224,8.08V399.989z M458.027,450.085l-27.904,13.952h-72.352l-5.76-17.296v-20.28l10.24-15.36c1.272-1.92,3.416-3.064,5.712-3.064 c3.456,0,5.232,2.28,5.832,3.256c0.608,0.984,1.848,3.592,0.304,6.672l-5.248,10.496c-1.536,3.08-0.936,6.8,1.504,9.232l8,8 c1.496,1.504,3.528,2.344,5.656,2.344h40v-16h-36.688l-1.576-1.576l2.672-5.336c3.568-7.136,3.184-15.456-1.008-22.24 c-4.192-6.784-11.472-10.848-19.448-10.848c-7.656,0-14.768,3.808-19.024,10.176l-11.584,17.384 c-0.872,1.32-1.344,2.864-1.344,4.44v24c0,0.856,0.144,1.712,0.416,2.528l4.488,13.472h-28.904v-56h-16v56h-24v-56.024v-63.976 c0-4.128-3.144-7.584-7.256-7.968c-5.856-0.544-11.352-2.112-16.432-4.608l10.504-3.936l-5.624-14.984l-19.68,7.384 c-5.192-6.128-8.048-12.608-9.512-17.112v-2.608v-5.76l20.848,8.936l6.296-14.704l-27.144-11.624v-10.8l17.584-29.312 l16.76,16.752c1.496,1.504,3.528,2.344,5.656,2.344h32h16c2.128,0,4.16-0.84,5.656-2.344l16.76-16.752l17.584,29.312v10.8 l-27.152,11.632l6.296,14.704l20.856-8.936v8.36c-1.2,3.688-3.352,8.712-6.928,13.784l-14.872-4.248l-4.392,15.384l5.744,1.64 c-6.104,3.752-12.92,6.016-20.288,6.704c-3.088,0.288-5.736,2.336-6.784,5.248c-1.056,2.92-0.328,6.176,1.864,8.368l16,16 c1.496,1.504,3.528,2.344,5.656,2.344h87.432c4.576,0.696,28.76,5.408,41.624,27.968 C470.235,419.085,461.235,443.029,458.027,450.085z"/> </g> </g><g> <g> <path d="M472.619,105.565c-14.408-40.04-61.176-101.104-131.016-105.2c-47.472-2.856-83.608,34.152-100.896,51.912 c-0.336,0.344-0.672,0.688-0.992,1.016c-0.448-0.456-0.904-0.936-1.392-1.44c-17.024-17.68-52.72-54.544-99.896-51.68 C68.587,4.269,21.819,65.325,7.411,105.373c-19.24,53.52-0.608,121.904,51.128,187.616l12.584-9.896 c-48.256-61.28-65.992-124.088-48.648-172.312c12.96-36.048,54.792-91,116.888-94.64c40.08-2.248,72.072,30.856,87.44,46.816 c2.936,3.04,5.312,5.496,7.072,7.056c0.968,0.864,2.144,1.48,3.4,1.792l0.824,0.2c2.552,0.632,5.272-0.032,7.24-1.792 c1.704-1.512,4-3.864,6.84-6.784c15.624-16.048,48.24-49.368,88.488-47.096c62.104,3.648,103.928,58.6,116.888,94.648 c19.72,54.816-5.928,127.944-68.6,195.616l11.736,10.872C467.507,245.325,494.395,166.109,472.619,105.565z"/> </g> </g><g> <g> <rect x="208.011" y="136.037" width="16" height="16"/> </g> </g><g> <g> <rect x="256.011" y="136.037" width="16" height="16"/> </g> </g><g> <g> <rect x="224.011" y="168.037" width="32" height="16"/> </g> </g><g> <g> <rect x="256.011" y="272.037" width="16" height="16"/> </g> </g><g> <g> <rect x="304.011" y="272.037" width="16" height="16"/> </g> </g><g> <g> <rect x="280.011" y="296.037" width="16" height="16"/> </g> </g></symbol><symbol id="utilities" viewBox="0 0 60 46"><title>utilities</title><title>027 - Utilities</title><desc>Created with Sketch.</desc><defs/><g id="Page-1" stroke="none" stroke-width="1" fill="none" fill-rule="evenodd"><g id="027---Utilities" transform="translate(0.000000, -1.000000)" fill="#000000" fill-rule="nonzero"><path d="M36.636,8.146 C35.8629676,6.8599281 34.7441094,5.81695404 33.407,5.136 C33.1312591,5.02155846 32.8188072,5.03630303 32.5550685,5.17620253 C32.2913299,5.31610204 32.1038919,5.56652283 32.044,5.859 C31.927,6.43 31.867,7 31.81,7.551 L31.786,7.765 C29.9556936,4.45917374 26.8708626,2.03002249 23.228,1.026 C22.7483719,0.912331977 22.2574515,1.1651133 22.0713817,1.62155781 C21.885312,2.07800231 22.0595967,2.6019547 22.482,2.856 C24.143,3.856 24.912,6.095 25.266,7.795 C25.4935704,8.72412594 25.4676699,9.69729422 25.191,10.613 C24.7389731,11.5179685 24.0226775,12.264255 23.137,12.753 C21.1575387,14.0959069 19.7493111,16.1280329 19.187,18.453 C18.6051113,21.1794232 19.4092672,24.0171798 21.335,26.033 C23.1728433,27.9257388 25.6968022,28.9966185 28.335,29.003 C33.204,29.003 37.262,26.149 38.435,21.897 L38.53,21.532 C39.1002489,19.217332 39.2110058,16.8132956 38.856,14.456 C38.6035219,12.2116604 37.8444153,10.0540194 36.636,8.146 Z M25.736,25.746 C25.130672,24.9744334 24.8823101,23.9817132 25.053,23.016 C25.3043844,22.0030741 25.8921039,21.1054534 26.72,20.47 C27.4658867,19.873693 28.1615568,19.2171544 28.8,18.507 C29.406529,19.2476868 29.7851636,20.1484204 29.89,21.1 C29.9144205,21.5847336 30.2833813,21.9819462 30.765,22.042 C31.4998929,22.1281383 32.2441373,22.0868665 32.965,21.92 C32.9052034,22.4653561 32.818094,23.0073702 32.704,23.544 L32.637,23.838 C32.4647699,24.5769608 32.0872718,25.2522283 31.548,25.786 L30.425,26.56 C29.7693899,26.8592549 29.055616,27.0095231 28.335,27 C27.3297576,26.9732035 26.3843829,26.5161753 25.739,25.745 L25.736,25.746 Z M36.586,21.046 L36.501,21.372 C36.1403041,22.6585571 35.4279534,23.8190273 34.444,24.723 C34.489,24.58 34.544,24.442 34.579,24.295 L34.651,23.978 C34.89363,22.8399406 35.0275653,21.6813999 35.051,20.518 C35.0587239,20.1640106 34.8786803,19.8323277 34.5776325,19.6459452 C34.2765848,19.4595628 33.8994209,19.4462715 33.586,19.611 C33.003825,19.8823641 32.3760319,20.0424497 31.735,20.083 C31.3755233,18.572866 30.5328263,17.2213907 29.335,16.234 C29.1193925,16.0555479 28.8388683,15.9756169 28.5615832,16.0136272 C28.2842982,16.0516375 28.0356319,16.20411 27.876,16.434 C27.1803992,17.3779217 26.355678,18.2194739 25.426,18.934 C24.2431178,19.8645207 23.4159276,21.1732677 23.083,22.641 C22.9387559,23.4389364 22.97532,24.2590656 23.19,25.041 C23.05,24.915 22.909,24.789 22.78,24.652 C21.3086761,23.1160068 20.6924263,20.9516445 21.134,18.871 C21.6057341,17.0089629 22.7549511,15.3897899 24.357,14.33 C25.571977,13.6264112 26.5260284,12.5477963 27.076,11.256 C27.4707948,10.0018843 27.5191683,8.66435848 27.216,7.385 C27.0292009,6.45440013 26.7477372,5.54533926 26.376,4.672 C28.7328262,6.26717407 30.4031588,8.69074489 31.055,11.461 C31.1604565,11.8899386 31.5348424,12.1988781 31.976,12.221 C32.4215426,12.2593858 32.8342683,11.9840969 32.97,11.558 C33.196,10.92 33.361,10.281 33.48,9.794 C33.6250147,9.14160967 33.7252485,8.48006659 33.78,7.814 C34.2243623,8.26316511 34.6260845,8.75259676 34.98,9.276 C36.0128397,10.9344021 36.6594624,12.8038663 36.872,14.746 C37.1890504,16.8427122 37.092912,18.9811952 36.589,21.041 L36.586,21.046 Z" id="Shape"/><path d="M50.156,2.463 C49.321,3.776 42,15.423 42,20 C42,24.9705627 46.0294373,29 51,29 C55.9705627,29 60,24.9705627 60,20 C60,15.423 52.679,3.776 51.844,2.463 C51.6488244,2.19115246 51.3346559,2.02995792 51,2.02995792 C50.6653441,2.02995792 50.3511756,2.19115246 50.156,2.463 Z M51,27 C47.1358343,26.9955914 44.0044086,23.8641657 44,20 C44,16.992 48.474,9.035 51,4.894 C53.526,9.035 58,16.994 58,20 C57.9955914,23.8641657 54.8641657,26.9955914 51,27 Z" id="Shape"/><path d="M48,20 C48,19.4477153 47.5522847,19 47,19 C46.4477153,19 46,19.4477153 46,20 C46.0033061,22.7600532 48.2399468,24.9966939 51,25 C51.5522847,25 52,24.5522847 52,24 C52,23.4477153 51.5522847,23 51,23 C49.3431458,23 48,21.6568542 48,20 Z" id="Shape"/><path d="M17,10 L12.7,10 L16.875,2.486 C17.0473254,2.17611303 17.0426653,1.79814335 16.862752,1.49259925 C16.6828388,1.18705515 16.3545784,0.999630709 16,1 L5,1 C4.56089007,0.99991456 4.17309831,1.28629634 4.044,1.706 L0.044,14.706 C-0.0493051001,15.0093385 0.006917102,15.3389585 0.195500115,15.5942163 C0.384083128,15.8494741 0.68263574,16.0000618 1,16 L6.612,16 L3.052,26.684 C2.90104508,27.1417348 3.0980798,27.6420198 3.52062927,27.8738828 C3.94317873,28.1057458 4.47099813,28.0032055 4.776,27.63 L17.776,11.63 C18.0188826,11.330601 18.0680247,10.9182459 17.9023065,10.5701523 C17.7365883,10.2220586 17.3855277,10.0002294 17,10 Z M6.684,22.111 L8.948,15.311 C9.04753604,15.006823 8.99546492,14.6733799 8.80792785,14.4140327 C8.62039078,14.1546856 8.32004765,14.000771 8,14 L2.354,14 L5.738,3 L14.3,3 L10.125,10.514 C9.95267462,10.823887 9.95733474,11.2018567 10.137248,11.5074008 C10.3171612,11.8129448 10.6454216,12.0003693 11,12 L14.9,12 L6.684,22.111 Z" id="Shape"/><path d="M14,33 L4,33 C2.8954305,33 2,33.8954305 2,35 L2,45 C2,46.1045695 2.8954305,47 4,47 L14,47 C15.1045695,47 16,46.1045695 16,45 L16,35 C16,33.8954305 15.1045695,33 14,33 Z M4,45 L4,35 L14,35 L14,45 L4,45 Z" id="Shape"/><path d="M35,33 L25,33 C23.8954305,33 23,33.8954305 23,35 L23,45 C23,46.1045695 23.8954305,47 25,47 L35,47 C36.1045695,47 37,46.1045695 37,45 L37,35 C37,33.8954305 36.1045695,33 35,33 Z M25,45 L25,35 L35,35 L35,45 L25,45 Z" id="Shape"/><path d="M56,33 L46,33 C44.8954305,33 44,33.8954305 44,35 L44,45 C44,46.1045695 44.8954305,47 46,47 L56,47 C57.1045695,47 58,46.1045695 58,45 L58,35 C58,33.8954305 57.1045695,33 56,33 Z M46,45 L46,35 L56,35 L56,45 L46,45 Z" id="Shape"/><path d="M11.707,37.293 C11.3165001,36.9026181 10.6834999,36.9026181 10.293,37.293 L9,38.586 L7.707,37.293 C7.31462111,36.9140278 6.69091522,36.9194476 6.30518142,37.3051814 C5.91944763,37.6909152 5.91402779,38.3146211 6.293,38.707 L7.586,40 L6.293,41.293 C6.03304342,41.5440745 5.9287874,41.9158779 6.02030284,42.2655073 C6.11181828,42.6151368 6.38486324,42.8881817 6.73449268,42.9796972 C7.08412211,43.0712126 7.45592553,42.9669566 7.707,42.707 L9,41.414 L10.293,42.707 C10.6853789,43.0859722 11.3090848,43.0805524 11.6948186,42.6948186 C12.0805524,42.3090848 12.0859722,41.6853789 11.707,41.293 L10.414,40 L11.707,38.707 C12.0973819,38.3165001 12.0973819,37.6834999 11.707,37.293 Z" id="Shape"/><path d="M32.707,37.293 C32.3165001,36.9026181 31.6834999,36.9026181 31.293,37.293 L30,38.586 L28.707,37.293 C28.3146211,36.9140278 27.6909152,36.9194476 27.3051814,37.3051814 C26.9194476,37.6909152 26.9140278,38.3146211 27.293,38.707 L28.586,40 L27.293,41.293 C27.0330434,41.5440745 26.9287874,41.9158779 27.0203028,42.2655073 C27.1118183,42.6151368 27.3848632,42.8881817 27.7344927,42.9796972 C28.0841221,43.0712126 28.4559255,42.9669566 28.707,42.707 L30,41.414 L31.293,42.707 C31.6853789,43.0859722 32.3090848,43.0805524 32.6948186,42.6948186 C33.0805524,42.3090848 33.0859722,41.6853789 32.707,41.293 L31.414,40 L32.707,38.707 C33.0973819,38.3165001 33.0973819,37.6834999 32.707,37.293 Z" id="Shape"/><path d="M53.707,37.293 C53.3165001,36.9026181 52.6834999,36.9026181 52.293,37.293 L51,38.586 L49.707,37.293 C49.3146211,36.9140278 48.6909152,36.9194476 48.3051814,37.3051814 C47.9194476,37.6909152 47.9140278,38.3146211 48.293,38.707 L49.586,40 L48.293,41.293 C48.0330434,41.5440745 47.9287874,41.9158779 48.0203028,42.2655073 C48.1118183,42.6151368 48.3848632,42.8881817 48.7344927,42.9796972 C49.0841221,43.0712126 49.4559255,42.9669566 49.707,42.707 L51,41.414 L52.293,42.707 C52.6853789,43.0859722 53.3090848,43.0805524 53.6948186,42.6948186 C54.0805524,42.3090848 54.0859722,41.6853789 53.707,41.293 L52.414,40 L53.707,38.707 C54.0973819,38.3165001 54.0973819,37.6834999 53.707,37.293 Z" id="Shape"/></g></g></symbol><symbol id="oven" viewBox="0 0 512 512"><title>oven</title><path d="M271,296a8,8,0,0,0-16,0c0,4.994-1.89,7.154-5.021,10.732C246.19,311.062,241,316.994,241,328s5.19,16.938,8.979,21.268C253.11,352.846,255,355.006,255,360a8,8,0,0,0,16,0c0-11.006-5.19-16.938-8.979-21.268C258.89,335.154,257,332.994,257,328s1.89-7.154,5.021-10.732C265.81,312.938,271,307.006,271,296Z"/><path d="M319,296a8,8,0,0,0-16,0c0,4.994-1.89,7.154-5.021,10.732C294.19,311.062,289,316.994,289,328s5.19,16.938,8.979,21.268C301.11,352.846,303,355.006,303,360a8,8,0,0,0,16,0c0-11.006-5.19-16.938-8.979-21.268C306.89,335.154,305,332.994,305,328s1.89-7.154,5.021-10.732C313.81,312.938,319,307.006,319,296Z"/><path d="M223,296a8,8,0,0,0-16,0c0,4.994-1.89,7.154-5.021,10.732C198.19,311.062,193,316.994,193,328s5.19,16.938,8.979,21.268C205.11,352.846,207,355.006,207,360a8,8,0,0,0,16,0c0-11.006-5.19-16.938-8.979-21.268C210.89,335.154,209,332.994,209,328s1.89-7.154,5.021-10.732C217.81,312.938,223,307.006,223,296Z"/><path d="M440,144H72a8,8,0,0,0-8,8V440a8,8,0,0,0,8,8H440a8,8,0,0,0,8-8V152A8,8,0,0,0,440,144Zm-8,288H80V160H432Z"/><path d="M452,16H60A44.049,44.049,0,0,0,16,60V452a44.049,44.049,0,0,0,44,44H452a44.049,44.049,0,0,0,44-44V60A44.049,44.049,0,0,0,452,16ZM32,60A28.032,28.032,0,0,1,60,32H452a28.032,28.032,0,0,1,28,28V96H32ZM452,480H60a28.032,28.032,0,0,1-28-28V112H480V452A28.032,28.032,0,0,1,452,480Z"/><path d="M312,40H200a8,8,0,0,0-8,8V80a8,8,0,0,0,8,8H312a8,8,0,0,0,8-8V48A8,8,0,0,0,312,40Zm-8,32H208V56h96Z"/><path d="M120,256H392a24,24,0,0,0,8-46.624V184a8,8,0,0,0-8-8H360a8,8,0,0,0-8,8v24H160V184a8,8,0,0,0-8-8H120a8,8,0,0,0-8,8v25.376A24,24,0,0,0,120,256Zm248-64h16v16H368Zm-240,0h16v16H128Zm-8,32H392a8,8,0,0,1,0,16H120a8,8,0,0,1,0-16Z"/><path d="M152,40a24,24,0,1,0,24,24A24.027,24.027,0,0,0,152,40Zm0,32a8,8,0,1,1,8-8A8.009,8.009,0,0,1,152,72Z"/><path d="M88,40a24,24,0,1,0,24,24A24.027,24.027,0,0,0,88,40Zm0,32a8,8,0,1,1,8-8A8.009,8.009,0,0,1,88,72Z"/><path d="M424,40a24,24,0,1,0,24,24A24.027,24.027,0,0,0,424,40Zm0,32a8,8,0,1,1,8-8A8.009,8.009,0,0,1,424,72Z"/><path d="M360,40a24,24,0,1,0,24,24A24.027,24.027,0,0,0,360,40Zm0,32a8,8,0,1,1,8-8A8.009,8.009,0,0,1,360,72Z"/><path d="M328,400H184a8,8,0,0,0,0,16H328a8,8,0,0,0,0-16Z"/><path d="M368,400h-8a8,8,0,0,0,0,16h8a8,8,0,0,0,0-16Z"/></symbol><symbol id="globe" viewBox="0 0 479.447 479.447"><title>globe</title><path d="M239.446,0.022c-8.594,0-17.182,0.462-25.727,1.383c-7.832,0.8-15.568,2.112-23.2,3.704 c-1.477,0.309-2.955,0.635-4.432,0.976C141.12,16.323,100.06,39.314,67.831,72.301c-2.997,3.072-5.931,6.235-8.8,9.488 c-87.06,99.948-76.612,251.548,23.337,338.608c95.688,83.349,239.723,77.803,328.719-12.656c3.003-3.072,5.936-6.235,8.8-9.488 c38.421-43.754,59.594-100.003,59.56-158.232C479.447,107.472,371.995,0.021,239.446,0.022z M78.495,84.301 c1.264-1.312,2.576-2.568,3.864-3.84c1.488-1.464,2.968-2.936,4.488-4.352c1.336-1.248,2.712-2.448,4.08-3.664 c1.544-1.368,3.08-2.736,4.664-4.056c1.392-1.176,2.824-2.304,4.248-3.44c1.6-1.28,3.2-2.56,4.848-3.792 c1.456-1.096,2.936-2.16,4.424-3.2c1.656-1.184,3.32-2.4,5.008-3.504c1.512-1.024,3.04-2.016,4.576-3 c1.712-1.096,3.432-2.176,5.168-3.2c1.563-0.933,3.136-1.851,4.72-2.752c1.771-1.008,3.549-1.992,5.336-2.952 c1.6-0.853,3.2-1.688,4.8-2.504c1.824-0.92,3.664-1.808,5.512-2.68c1.6-0.76,3.264-1.52,4.912-2.24c1.88-0.8,3.784-1.6,5.688-2.4 c1.656-0.68,3.304-1.344,4.976-1.984c1.936-0.736,3.896-1.424,5.856-2.112c1.672-0.584,3.344-1.168,5.04-1.72 c1.992-0.64,4-1.232,6.016-1.816c1.688-0.488,3.36-0.992,5.056-1.448c0.648-0.168,1.296-0.304,1.944-0.472 c-23.68,22.993-41.253,51.529-51.128,83.024c-18.988-5.008-37.37-12.082-54.816-21.096C78.039,84.821,78.263,84.541,78.495,84.301 z M66.991,97.181c19.217,10.412,39.595,18.522,60.712,24.16c-10.352,35.996-15.786,73.227-16.152,110.68h-95.92 C17.374,182.632,35.435,135.214,66.991,97.181z M66.991,382.861c-31.554-38.034-49.615-85.452-51.36-134.84h95.92 c0.366,37.453,5.799,74.684,16.152,110.68C106.587,364.341,86.209,372.45,66.991,382.861z M181.727,456.429 c-1.616-0.408-3.288-0.936-4.952-1.424c-2.024-0.592-4.056-1.184-6.056-1.832c-1.688-0.544-3.352-1.128-5.016-1.712 c-1.968-0.68-3.936-1.376-5.88-2.12c-1.664-0.632-3.304-1.296-4.952-1.968c-1.912-0.8-3.824-1.6-5.72-2.4 c-1.632-0.72-3.256-1.461-4.872-2.224c-1.864-0.88-3.72-1.776-5.6-2.704c-1.6-0.8-3.2-1.6-4.8-2.472 c-1.808-0.968-3.6-1.96-5.392-2.984c-1.6-0.888-3.12-1.8-4.664-2.728c-1.76-1.056-3.488-2.144-5.216-3.256 c-1.52-0.968-3.04-1.952-4.536-2.96c-1.704-1.152-3.392-2.352-5.064-3.552c-1.464-1.048-2.928-2.096-4.368-3.2 c-1.656-1.248-3.28-2.536-4.896-3.832c-1.416-1.128-2.824-2.248-4.208-3.408c-1.6-1.328-3.144-2.712-4.696-4.088 c-1.36-1.208-2.728-2.4-4.056-3.632c-1.528-1.424-3.008-2.904-4.496-4.368c-1.288-1.272-2.6-2.528-3.864-3.832 c-0.232-0.248-0.456-0.504-0.688-0.744c17.445-9.018,35.827-16.095,54.816-21.104c9.877,31.494,27.449,60.029,51.128,83.024 C183.031,456.741,182.375,456.605,181.727,456.429z M231.447,463.389c-34.232-4.864-64.24-40.592-83.12-93.352 c27.296-6.112,55.151-9.391,83.12-9.784V463.389z M231.447,344.253c-29.67,0.39-59.215,3.914-88.144,10.512 c-10.045-34.707-15.344-70.615-15.752-106.744h103.896V344.253z M231.447,232.021H127.551 c0.407-36.129,5.706-72.037,15.752-106.744c28.929,6.597,58.475,10.121,88.144,10.512V232.021z M231.447,119.789 c-27.97-0.39-55.824-3.669-83.12-9.784c18.88-52.76,48.888-88.488,83.12-93.352V119.789z M411.903,97.181 c31.554,38.034,49.615,85.452,51.36,134.84h-95.92c-0.366-37.453-5.799-74.684-16.152-110.68 C372.307,115.7,392.685,107.591,411.903,97.181z M297.103,23.605c1.68,0.416,3.352,0.944,5.016,1.432 c2.024,0.592,4.056,1.184,6.056,1.832c1.688,0.544,3.352,1.128,5.016,1.712c1.968,0.68,3.936,1.376,5.88,2.12 c1.664,0.632,3.304,1.296,4.952,1.968c1.912,0.8,3.824,1.6,5.72,2.4c1.632,0.72,3.256,1.461,4.872,2.224 c1.864,0.88,3.72,1.776,5.6,2.704c1.6,0.8,3.2,1.6,4.8,2.472c1.808,0.968,3.6,1.96,5.392,2.984c1.6,0.888,3.12,1.8,4.664,2.728 c1.76,1.056,3.488,2.144,5.216,3.256c1.52,0.968,3.04,1.952,4.536,2.96c1.704,1.152,3.384,2.344,5.056,3.544 c1.472,1.048,2.936,2.104,4.384,3.2c1.648,1.24,3.264,2.528,4.888,3.824c1.408,1.12,2.824,2.24,4.208,3.408 c1.6,1.328,3.144,2.712,4.696,4.088c1.36,1.208,2.728,2.4,4.056,3.632c1.528,1.424,3.008,2.904,4.496,4.368 c1.288,1.272,2.6,2.528,3.864,3.832c0.232,0.248,0.456,0.504,0.688,0.744c-17.445,9.018-35.827,16.095-54.816,21.104 c-9.896-31.498-27.491-60.031-51.192-83.016C295.799,23.293,296.455,23.429,297.103,23.605z M247.447,16.653 c34.232,4.864,64.24,40.592,83.12,93.352c-27.296,6.112-55.151,9.391-83.12,9.784V16.653z M247.447,135.789 c29.67-0.39,59.215-3.914,88.144-10.512c10.045,34.707,15.344,70.615,15.752,106.744H247.447V135.789z M247.447,248.021h103.896 c-0.407,36.129-5.706,72.037-15.752,106.744h0c-28.929-6.597-58.474-10.121-88.144-10.512V248.021z M247.447,463.389V360.253 c27.97,0.39,55.824,3.669,83.12,9.784C311.687,422.797,281.679,458.525,247.447,463.389z M400.399,395.741 c-1.264,1.304-2.568,2.56-3.856,3.832c-1.488,1.464-2.976,2.944-4.504,4.368c-1.328,1.24-2.696,2.4-4.056,3.64 c-1.552,1.376-3.096,2.752-4.68,4.08c-1.4,1.168-2.824,2.296-4.248,3.432c-1.6,1.28-3.2,2.56-4.848,3.792 c-1.456,1.096-2.936,2.16-4.424,3.2c-1.656,1.184-3.32,2.4-5.008,3.504c-1.512,1.024-3.04,2.016-4.576,2.992 c-1.712,1.104-3.437,2.171-5.176,3.2c-1.6,0.936-3.128,1.848-4.704,2.752c-1.771,1.008-3.552,1.992-5.344,2.952 c-1.6,0.853-3.2,1.688-4.8,2.504c-1.824,0.92-3.664,1.808-5.512,2.68c-1.6,0.76-3.264,1.52-4.912,2.24 c-1.88,0.8-3.784,1.6-5.688,2.4c-1.656,0.672-3.304,1.344-4.968,1.976c-1.952,0.744-3.912,1.44-5.88,2.12 c-1.664,0.584-3.328,1.168-5.016,1.712c-2,0.648-4,1.24-6.04,1.824c-1.672,0.496-3.352,0.992-5.04,1.448 c-0.648,0.168-1.296,0.304-1.944,0.472c23.68-22.993,41.253-51.529,51.128-83.024c18.988,5.008,37.37,12.082,54.816,21.096 C400.855,395.221,400.631,395.501,400.399,395.741z M411.903,382.861c-19.217-10.412-39.595-18.522-60.712-24.16 c10.352-35.996,15.786-73.227,16.152-110.68h95.92C461.521,297.409,443.459,344.828,411.903,382.861z"/></symbol><symbol id="parking" viewBox="0 0 512 512"><title>parking</title><g> <g> <path d="M281.541,124.23h-91.54v263.54h30v-83.541h61.54c48.777,0,88.46-39.683,88.46-88.459v-3.082 C370.001,163.913,330.318,124.23,281.541,124.23z M340.001,215.771c0,32.234-26.225,58.459-58.46,58.459h-61.54v-120h61.54 c32.235,0,58.46,26.225,58.46,58.459V215.771z"/> </g> </g><g> <g> <path d="M437.02,74.98C388.667,26.628,324.38,0,256,0S123.333,26.628,74.98,74.98C26.629,123.333,0,187.621,0,256 s26.629,132.667,74.981,181.019S187.62,512,256,512s132.667-26.628,181.02-74.98C485.371,388.667,512,324.379,512,256 S485.371,123.333,437.02,74.98z M415.807,415.807C373.12,458.492,316.366,482,256,482c-60.367,0-117.12-23.508-159.806-66.194 C53.508,373.12,30,316.366,30,256c0-60.366,23.508-117.12,66.194-159.807C138.88,53.508,195.633,30,256,30 c60.366,0,117.12,23.508,159.807,66.193C458.492,138.88,482,195.634,482,256C482,316.366,458.492,373.12,415.807,415.807z"/> </g> </g></symbol><symbol id="tick" viewBox="0 0 468.293 468.293"><title>tick</title><circle style="fill:#44C4A1;" cx="234.146" cy="234.146" r="234.146"/><polygon style="fill:#EBF0F3;" points="357.52,110.145 191.995,275.67 110.773,194.451 69.534,235.684 191.995,358.148 398.759,151.378 "/></symbol><symbol id="remove" viewBox="0 0 512 512"><title>remove</title><path d="m256 0c-141.164062 0-256 114.835938-256 256s114.835938 256 256 256 256-114.835938 256-256-114.835938-256-256-256zm0 0" fill="#f44336"/><path d="m350.273438 320.105469c8.339843 8.34375 8.339843 21.824219 0 30.167969-4.160157 4.160156-9.621094 6.25-15.085938 6.25-5.460938 0-10.921875-2.089844-15.082031-6.25l-64.105469-64.109376-64.105469 64.109376c-4.160156 4.160156-9.621093 6.25-15.082031 6.25-5.464844 0-10.925781-2.089844-15.085938-6.25-8.339843-8.34375-8.339843-21.824219 0-30.167969l64.109376-64.105469-64.109376-64.105469c-8.339843-8.34375-8.339843-21.824219 0-30.167969 8.34375-8.339843 21.824219-8.339843 30.167969 0l64.105469 64.109376 64.105469-64.109376c8.34375-8.339843 21.824219-8.339843 30.167969 0 8.339843 8.34375 8.339843 21.824219 0 30.167969l-64.109376 64.105469zm0 0" fill="#fafafa"/></symbol><symbol id="menu" viewBox="0 0 512 512"><title>menu</title><g> <g> <path d="M492,236H20c-11.046,0-20,8.954-20,20c0,11.046,8.954,20,20,20h472c11.046,0,20-8.954,20-20S503.046,236,492,236z"/> </g> </g><g> <g> <path d="M492,76H20C8.954,76,0,84.954,0,96s8.954,20,20,20h472c11.046,0,20-8.954,20-20S503.046,76,492,76z"/> </g> </g><g> <g> <path d="M492,396H20c-11.046,0-20,8.954-20,20c0,11.046,8.954,20,20,20h472c11.046,0,20-8.954,20-20 C512,404.954,503.046,396,492,396z"/> </g> </g></symbol></svg>